<?xml version="1.0" encoding="UTF-8" standalone="no"?>
<svg
   width="1024"
   height="1024"
   version="1.1"
   id="svg1151"
   sodipodi:docname="_34177e27-2703-4318-bf8c-7a4ed9250cd3.svg"
   inkscape:version="1.2.2 (732a01da63, 2022-12-09)"
   xmlns:inkscape="http://www.inkscape.org/namespaces/inkscape"
   xmlns:sodipodi="http://sodipodi.sourceforge.net/DTD/sodipodi-0.dtd"
   xmlns="http://www.w3.org/2000/svg"
   xmlns:svg="http://www.w3.org/2000/svg">
  <defs
     id="defs1155" />
  <sodipodi:namedview
     id="namedview1153"
     pagecolor="#ffffff"
     bordercolor="#000000"
     borderopacity="0.25"
     inkscape:showpageshadow="2"
     inkscape:pageopacity="0.0"
     inkscape:pagecheckerboard="0"
     inkscape:deskcolor="#d1d1d1"
     showgrid="false"
     inkscape:zoom="0.69902501"
     inkscape:cx="385.53699"
     inkscape:cy="501.41267"
     inkscape:window-width="1920"
     inkscape:window-height="991"
     inkscape:window-x="-9"
     inkscape:window-y="-9"
     inkscape:window-maximized="1"
     inkscape:current-layer="svg1151" />
  <g
     id="g3905"
     inkscape:export-filename="g3905.png"
     inkscape:export-xdpi="72"
     inkscape:export-ydpi="72">
    <path
       style="fill:#e00074;stroke:none;fill-opacity:1"
       d="M500 323C493.617 323.053 487.319 324.201 481 325C480.009 312.872 475.202 300.668 471.909 289C468.444 276.724 465.847 264.216 462.202 252C460.116 245.009 461.813 236.49 459.142 230.005C455.834 221.974 443.934 220.655 438.43 227.133C431.422 235.381 438.943 246.32 441.127 255C447.504 280.355 455.714 305.389 461 331C454.77 332.072 448.971 334.98 443 337C438.938 323.914 431.019 311.47 425.309 299C413.844 273.965 402.18 249.025 390.691 224C388.055 218.258 385.633 208.925 380.66 204.854C375.147 200.342 366.3 202.298 365.269 210.001C364.764 213.769 366.609 217.615 368.012 221C370.817 227.773 374.107 234.365 377.22 241C388.586 265.228 400.381 289.44 411 314C414.381 321.819 418.385 329.414 422.258 337C423.482 339.397 426.748 343.701 424.342 346.289C419.556 351.435 411.709 337.937 409.424 335C399.958 322.831 392.1 308.328 381.535 297.133C376.923 292.246 369.129 291.722 364.653 297.214C358.617 304.62 365.261 312.278 370.13 318C378.276 327.572 385.542 337.978 393.13 348C395.545 351.19 400.878 355.799 401.257 359.961C401.551 363.19 397.245 366.165 395 367.872C389.945 371.715 387.169 367.894 383.715 363.999C379.545 359.298 375.297 354.655 371.075 350C353.687 330.829 336.308 311.285 317.996 293.004C310.203 285.224 298.716 279.976 290.653 291.043C279.866 305.849 298.891 319.891 308 329C323.039 344.039 338.604 358.324 353.996 372.964C357.955 376.729 362.167 380.226 366.032 384.093C367.618 385.681 369.937 387.612 370.231 390C370.802 394.65 363.093 400.9 361 405C348.823 398.063 337.373 388.787 326 380.576C321.281 377.169 315.314 370.922 309 371.434C300.156 372.152 295.842 383.051 301.434 389.816C304.657 393.714 309.919 396.235 314 399.141C319.962 403.386 326.039 407.461 332 411.709C336.739 415.086 341.186 418.876 347 420C344.283 427.422 339.13 433.737 336 441C325.73 437.526 316.029 432.538 306 428.452C280.664 418.13 255.233 408.005 230 397.424C224.699 395.202 217.884 390.95 212 391.282C204.922 391.682 200.48 399.83 204.742 405.812C209.527 412.526 222.684 415.3 230 418.421C252.147 427.871 274.463 437.493 297 445.95C304.728 448.85 312.35 452.094 320 455.201C322.825 456.348 327.009 457.511 327.357 461.105C327.681 464.448 325.734 470.916 321.891 471.382C316.883 471.989 309.949 469.022 305 467.997C291.611 465.224 278.297 462.182 265 459C257.018 457.09 245.263 457.2 246.423 469C247.323 478.154 256.756 478.849 264 479.87C282.83 482.524 301.119 488.562 320 491C319.704 494.747 320.156 502.638 317.397 505.397C315.141 507.652 310.886 506.999 308 507L284 507C260.681 507 237.374 506 214 506C204.477 506 192.139 503.938 183 506.804C171.683 510.353 167.723 527.377 179.043 533.686C183.363 536.094 189.205 535.992 194 536C203.717 536.016 213.342 535.119 223 535.004C235.996 534.849 249.003 535 262 535C281.022 535 300.048 534 319 534C319 537.827 320.629 545.239 318.802 548.57C316.722 552.364 307.812 552.92 304 553.873C294.666 556.207 285.373 558.723 276 560.881C271.685 561.875 265.844 562.066 262.189 564.738C255.2 569.848 257.245 581.944 266.001 583.566C270.059 584.318 274.212 582.371 278 581.191C284.61 579.133 291.303 577.366 298 575.623C306.635 573.374 315.255 570.81 324 569C324.354 573.056 327.947 580.005 325.306 583.582C323.499 586.03 319.672 586.899 317 588.012C311.316 590.378 305.657 592.847 300 595.281C277.031 605.163 254.179 615.425 231 624.799C223.421 627.865 209.527 631.104 204.742 638.105C201.005 643.573 204.458 651.177 211.004 651.851C217.948 652.567 225.809 647.633 232 645C266.174 630.466 299.759 614.256 334 600C335.268 605.862 338.424 611.232 342 616C351.637 609.211 359.671 599.329 368 591C380.515 578.485 393.491 566.509 406 554C411.296 548.704 416.456 543.208 421.999 538.17C425.104 535.348 429.169 532.59 431.062 528.714C432.88 524.991 431.225 520.881 431.129 517C431.018 512.503 431.786 507.459 432.428 503C434.76 486.801 442.73 472.201 453.428 460.015C462.849 449.284 475.631 441.455 489 436.698C495.317 434.451 503.593 434.801 509 430.686C514.387 426.586 518.66 420.984 523.17 416C530.844 407.518 538.966 399.134 547.004 391C569.763 367.967 594.235 346.011 615.895 322C622.348 314.846 625.113 304.569 629.258 296C638.973 275.921 648.445 255.477 657.281 235C660.608 227.289 670.755 213.341 664.03 205.419C660.523 201.287 654.168 201.651 650.557 205.394C645.177 210.973 642.101 221.972 638.781 229C622.11 264.294 604.998 299.978 590 336C585.788 334.375 575.443 332.602 573.118 328.57C570.726 324.421 575.536 314.363 576.627 310C580.971 292.624 585.782 275.377 590.127 258C592.459 248.67 603.078 227.586 587.996 223.434C569.196 218.258 572.373 242.329 569.63 253C565.007 270.981 560.867 289.273 555.341 307C554.087 311.024 553.483 321.635 549.567 323.802C545.452 326.08 536.655 323.039 532 323L532 193C532 178.761 536.54 153.386 515 154.058C495.3 154.672 500 179.778 500 193L500 323M558.004 170.667C546.411 174.042 551.494 192.22 562.985 188.296C574.051 184.517 569.392 167.353 558.004 170.667M456.109 177.032C447.128 181.962 454.012 197.697 463.956 192.678C474.143 187.537 465.64 171.799 456.109 177.032M610.004 190.653C594.03 195.729 602.409 222.11 618.999 216.775C636.54 211.134 627.617 185.056 610.004 190.653M408.015 192.742C396.688 197.19 403.047 216.404 414.996 212.092C427.671 207.518 420.981 187.651 408.015 192.742M688.105 208.858C677.815 213.467 685.133 229.962 695.895 225.142C706.318 220.474 699.043 203.959 688.105 208.858M252.015 240.653C239.148 244.806 245.476 266.537 258.999 262.346C273.761 257.772 267.043 235.802 252.015 240.653M348.001 242.654C333.718 247.085 339.974 270.513 354.999 266.056C370.242 261.536 363.242 237.924 348.001 242.654M306.043 246.657C295.918 249.877 301.202 265.784 310.985 262.242C320.866 258.665 316.307 243.392 306.043 246.657M735.603 249.032C732.236 251.627 735.769 257.289 739.57 254.928C743.968 252.196 739.683 245.887 735.603 249.032M670.005 252.862C659.245 257.148 664.678 275.392 675.985 270.976C686.767 266.765 681.339 248.347 670.005 252.862M630 360C632.891 354.337 637.699 349.982 640 344C627.239 352.989 616.261 366.472 605.83 378C601.135 383.189 594.991 387.586 592 394L590 394C584.813 384.333 578.729 392.448 573 397.424C564.723 404.614 556.977 412.394 549.004 419.911C544.543 424.116 538.778 428.467 536 434C548.042 436.492 560.451 441.416 570 449.325C573.546 452.262 578.686 459.507 584 457.422C589.482 455.271 594.642 448.919 599 445.05C609.064 436.116 619.22 427.282 629 418.036C657.806 390.801 687.164 364.104 716.015 336.907C718.739 334.338 721.352 331.648 724 329C733.525 319.475 755.087 302.816 739.532 288.558C725.577 275.767 712.68 294.99 703.91 304.039C689.609 318.795 675.042 333.469 661.576 349C657.786 353.37 653.922 357.698 650.05 361.996C648.393 363.836 646.44 366.814 643.911 367.504C639.705 368.651 633.678 361.832 630 360M770 302.657C752.419 307.955 758.957 335.361 776.999 330.21C794.558 325.196 787.521 297.377 770 302.657M231.001 324.693C217.971 328.157 221.097 349.665 234.999 346.463C248.682 343.312 244.6 321.077 231.001 324.693M812.999 332.837C808.093 333.735 803.097 338.474 799 341.169C789.491 347.423 778.683 353.074 770.059 360.518C765.871 364.132 764.353 372.364 772.005 372.744C776.753 372.979 781.228 368.786 785 366.424L806 353.192C810.119 350.633 815.255 348.075 818.566 344.482C822.964 339.71 820.112 331.535 812.999 332.837z"
       id="path1105" />
    <path
       style="fill:#e00074;stroke:none;fill-opacity:1"
       d="M555.133 358.086C550.188 360.617 553.956 367.932 558.563 364.953C562.319 362.524 559.515 355.844 555.133 358.086M482.147 360.086C477.281 362.559 481.052 369.855 485.685 366.953C489.634 364.479 486.579 357.834 482.147 360.086z"
       id="path1107" />
    <path
       style="fill:#e00074;stroke:none;fill-opacity:1"
       d="M730 363.471C712.595 366.554 707.178 393.913 726 399.362C729.111 400.263 732.826 400.229 736 399.671C758.988 395.633 753.202 359.363 730 363.471M261.149 365.047C255.461 368.15 260.258 376.202 265.852 372.968C271.306 369.814 266.368 362.2 261.149 365.047z"
       id="path1109" />
    <path
       style="fill:#e00074;stroke:none;fill-opacity:1"
       d="M443.228 374.043C437.067 377.59 442.791 386.319 448.771 382.677C454.693 379.072 448.807 370.832 443.228 374.043M520.015 374.743C510.204 378.547 515.129 393.617 524.995 390.091C535.184 386.45 530.775 370.572 520.015 374.743M624.318 392.032C619.107 395.389 623.955 405.286 629.851 401.238C635.543 397.331 630.088 388.316 624.318 392.032z"
       id="path1111" />
    <path
       style="fill:#e00074;stroke:none;fill-opacity:1"
       d="M442 704C447.853 706.385 453.715 708.154 460 709C458.417 719.759 454.002 730.584 450.861 741C447.086 753.52 443.925 766.343 440.629 779C438.486 787.229 431.758 797.684 436.858 805.985C442.187 814.657 455.155 813.343 458.991 803.996C460.689 799.857 459.56 795.318 459.975 791C460.589 784.607 462.902 778.209 464.475 772C469.241 753.178 477.409 734.243 480 715C486.486 715.004 492.596 716.186 499 717L499 808C499 823.543 497.948 839.501 499.09 855C500.2 870.057 518.938 880.49 529.146 865.957C534.896 857.77 532 842.552 532 833L532 750L532 728C532 725.083 531.317 720.882 533.028 718.318C535.749 714.239 547.418 714.854 552 714C552.766 721.694 555.504 729.548 557.576 737C561.182 749.974 564.676 762.978 568.116 776C569.409 780.898 571.231 785.93 571.671 791C572.06 795.473 570.828 799.568 572.344 803.999C574.706 810.901 582.452 813.91 588.996 810.682C601.581 804.474 594.881 792.643 592.155 783C585.204 758.416 579.783 733.34 572 709C576.78 708.297 585.245 703.566 589.787 705.353C592.386 706.376 593.54 709.662 594.575 712C596.972 717.415 599.691 722.648 602.219 728L633.781 795C637.113 802.055 640.962 808.872 644.139 816C646.811 821.995 649.183 828.505 657 827.876C662.177 827.459 666.228 823.326 665.627 818C664.775 810.444 658.981 802.896 656 796C645.23 771.089 633.383 746.272 621.247 722L612.248 704C611.206 701.886 609.146 698.829 610.241 696.384C611.369 693.863 614.628 693.225 616.826 694.593C620.6 696.941 623.683 702.446 626.255 706C632.236 714.264 638.185 722.6 643.974 731C647.031 735.434 649.605 740.92 653.379 744.772C657.865 749.35 665.542 748.813 669.566 743.891C674.233 738.185 670.792 731.965 666.988 727C658.771 716.272 650.893 705.2 643.33 694C639.691 688.61 631.403 681.408 639.024 676.037C643.183 673.106 645.921 675.992 648.999 679.005C653.559 683.47 657.525 688.46 662.004 693C680.853 712.107 697.79 733.246 717.089 751.895C724.163 758.73 735.181 758.816 741.606 750.957C752.877 737.169 735.883 723.88 727 715C712.825 700.83 698.132 686.57 683 673.424C678.473 669.492 674.172 665.318 670.009 661C668.436 659.368 666.118 657.429 665.886 655C665.457 650.513 672.697 644.681 675 641C682.154 647.23 689.897 652.759 697 659.05C700.927 662.528 705.407 667.548 711 667.848C719.946 668.328 724.952 658.356 720.107 651.09C717.856 647.715 714.048 645.45 711 642.866C703.99 636.922 696.324 628.859 688 625C691.484 617.547 696.697 610.994 699 603C710.082 605.632 720.575 612.053 731 616.576C751.311 625.386 771.656 634.118 792 642.85C799.668 646.141 807.196 649.988 815 652.934C818.822 654.377 823.053 655.678 826.891 653.542C831.745 650.842 832.825 643.593 829.296 639.39C824.79 634.022 814.241 631.706 808 628.78C788.263 619.527 767.873 611.652 748 602.694C734.78 596.735 720.909 589.007 707 585C708.574 580.078 710.247 575.118 711 570C724.425 572.771 737.814 576.403 751 580.14C756.206 581.616 763.698 585.188 768.985 582.667C776.882 578.902 776.631 567.381 768.982 563.573C763.457 560.822 755.996 560.327 750 558.87C738.901 556.174 727.397 551.931 716 551C716.425 545.618 717 540.421 717 535C754.333 535 791.749 536 829 536C841.308 536 861.743 538.022 860.953 520C860.193 502.68 838.917 506 827 506C790.285 506 753.667 507 717 507C717 501.57 716.994 496.355 716 491C730.006 489.779 744.321 484.976 758 481.745C764.189 480.284 771.021 479.98 776.996 477.736C784.457 474.934 786.905 464.006 779.811 459.228C773.695 455.11 766.222 459.186 760 460.999C744.258 465.586 728.097 469.878 712 473C711.63 468.477 710.378 464.308 709 460C742.515 446.25 775.869 431.776 809 417.138C815.254 414.375 824.567 412.024 829.606 407.362C833.574 403.69 833.701 397.301 829.606 393.653C822.106 386.972 807.36 396.873 800 400.231C782.775 408.089 765.297 415.442 748 423.139C737.115 427.983 725.997 432.425 716 439.003C689.243 456.608 664.979 477.816 640 497.8L614 518.4C609.953 521.637 604.919 524.696 601.564 528.665C597.673 533.268 597.69 542.302 595.795 548C592.226 558.726 586.078 568.993 577.961 576.911C568.941 585.709 557.926 592.817 546 596.921C539.4 599.193 530.566 598.976 525.001 603.303C516.007 610.296 508.67 620.67 500.91 629C482.308 648.97 464.133 669.211 446.421 690C439.039 698.665 431.929 707.856 423.985 716C417.386 722.766 408.997 729.14 403.699 737C400.675 741.487 399.16 747.151 396.752 752C390.965 763.658 385.002 775.229 379.449 787C375.654 795.044 371.544 802.944 367.782 811C365.831 815.177 364.165 819.678 366.859 823.956C370.089 829.085 376.354 830.015 380.725 825.721C384.871 821.649 387.638 814.318 389.799 809C393.99 798.689 399.666 788.952 404.63 779C411.417 765.391 417.669 751.48 424.781 738C430.466 727.225 438.634 715.686 442 704z"
       id="path1113" />
    <path
       style="fill:#e00074;stroke:none;fill-opacity:1"
       d="M471.133 397.028C462.586 401.927 470.326 414.623 478.891 409.821C487.782 404.837 479.757 392.085 471.133 397.028M416.015 405.667C404.811 408.982 409.859 425.623 420.985 422.566C432.219 419.478 427.157 402.372 416.015 405.667z"
       id="path1115" />
    <path
       style="fill:#e00074;stroke:none;fill-opacity:1"
       d="M557 528C564.321 524.537 570.984 519.498 578 515.424C607.668 498.196 635.207 477.426 661 454.844C668.454 448.318 675.963 442.006 682.995 435.015C686.397 431.633 690.631 428.106 686.99 423.167C684.019 419.137 680.017 422.576 677 424.711C668.842 430.481 660.841 436.612 653 442.804C631.261 459.972 610.783 478.549 590 496.845C579.159 506.389 565.338 516.195 557 528M189.148 422.032C182.654 425.735 187.848 436.713 194.867 432.816C201.899 428.912 195.981 418.137 189.148 422.032z"
       id="path1117" />
    <path
       style="fill:#e00074;stroke:none;fill-opacity:1"
       d="M596.322 424.047C592.499 426.449 595.912 431.769 599.852 429.762C604.598 427.345 600.471 421.44 596.322 424.047z"
       id="path1119" />
    <path
       style="fill:#e00074;stroke:none;fill-opacity:1"
       d="M222.189 437.746C214.656 440.965 218.773 454.038 226.985 450.971C236.673 447.353 231.277 433.863 222.189 437.746z"
       id="path1121" />
    <path
       style="fill:#e00074;stroke:none;fill-opacity:1"
       d="M371.322 443.047C367.154 445.675 371.702 452.317 375.678 449.338C379.704 446.322 375.486 440.422 371.322 443.047z"
       id="path1123" />
    <path
       style="fill:#e00074;stroke:none;fill-opacity:1"
       d="M809 445.573C793.403 449.282 798.183 473.554 814 470.427C830.625 467.141 825.763 441.585 809 445.573z"
       id="path1125" />
    <path
       style="fill:#e00074;stroke:none;fill-opacity:1"
       d="M405.228 451.786C399.421 454.061 402.793 463.983 408.942 462.149C415.931 460.064 411.903 449.172 405.228 451.786M380.603 477.047C377.184 479.565 380.706 485.501 384.566 482.953C388.568 480.312 384.328 474.304 380.603 477.047M347.228 483.043C340.412 486.959 347.264 497.26 353.566 492.971C359.114 489.197 353.174 479.627 347.228 483.043M676.318 488.086C672.547 490.264 675.887 495.953 679.682 493.762C683.441 491.592 680.004 485.958 676.318 488.086M411 494C409.88 494.037 408.276 493.873 407.184 494.318C401.04 496.824 408.199 504.283 410.682 497.897C411.123 496.763 410.962 495.163 411 494M647.147 499.072C641.266 502.145 645.507 511.255 651.682 508.253C656.741 505.794 652.864 496.085 647.147 499.072M380.055 516.742C371.086 520.427 377.175 534.432 385.985 531.242C396.402 527.471 390.27 512.545 380.055 516.742M667.148 547.032C660.386 550.933 667.195 560.889 673.721 556.82C680.344 552.692 673.585 543.318 667.148 547.032M367.314 550.137C363.293 552.291 366.429 559.182 370.686 556.762C374.654 554.507 371.422 547.935 367.314 550.137M635.148 553.047C630.607 555.608 634.321 561.997 638.683 559.712C642.999 557.451 639.89 550.373 635.148 553.047z"
       id="path1127" />
    <path
       style="fill:#e00074;stroke:none;fill-opacity:1"
       d="M437 555C417.828 574.159 397.184 591.816 378 611C370.626 618.374 362.012 625.465 356 634C364.306 630.196 371.276 622.173 378 616.075C392.455 602.964 406.375 589.185 421 576.286C425.531 572.289 441.809 561.68 437 555M194.148 563.047C188.413 566.164 193.158 575.048 198.852 571.953C204.587 568.836 199.842 559.953 194.148 563.047z"
       id="path1129" />
    <path
       style="fill:#e00074;stroke:none;fill-opacity:1"
       d="M617.299 568.89C613.971 569.967 615.544 575.608 618.91 575.079C623.052 574.427 621.347 567.581 617.299 568.89M641.044 581.743C631.055 585.74 637.721 601.423 647.895 596.987C657.594 592.758 650.65 577.899 641.044 581.743z"
       id="path1131" />
    <path
       style="fill:#e00074;stroke:none;fill-opacity:1"
       d="M389 675C392.263 676.495 398.64 679.867 398.833 684.039C399.02 688.099 393.42 693.012 391.119 696C383.554 705.823 375.82 715.614 367.718 725C362.762 730.741 356.957 739.823 365.34 745.991C369.404 748.98 375.197 747.733 378.79 744.581C381.734 741.999 383.653 738.107 386.001 735C390.88 728.545 395.906 722.223 401.081 716C423.549 688.98 447.6 663.051 471.17 637C479.117 628.216 487.659 619.944 495.424 611C498.54 607.412 501.981 604.329 504 600C493.962 599.562 483.581 595.659 475 590.547C471.416 588.412 465.488 582.005 461 583.306C456.677 584.559 452.302 590.019 449 592.95C439.867 601.057 431.151 609.643 422 617.714C404.248 633.372 387.283 649.849 369 664.916C353.542 677.655 337.136 689.136 322 702.282C315.858 707.616 310.093 713.34 304 718.714C295.876 725.88 286.316 732.938 288.214 745C290.232 757.824 306.266 760.143 315 752.786C321.304 747.477 326.289 740.87 332.015 735C343.732 722.988 355.903 711.433 367.17 699C374.1 691.352 384.603 684.429 389 675M803.018 583.742C791.462 588.313 799.293 605.896 810.982 601.258C822.687 596.613 814.641 579.145 803.018 583.742M219.019 586.746C208.598 590.735 214.309 607.067 224.906 602.837C235.147 598.749 229.47 582.745 219.019 586.746M837.133 599.032C830.049 602.966 835.577 614.013 842.852 609.817C849.321 606.086 844.009 595.216 837.133 599.032z"
       id="path1133" />
    <path
       style="fill:#e00074;stroke:none;fill-opacity:1"
       d="M601.21 600.971C596.946 602.078 598.514 609.445 602.896 608.248C607.229 607.066 605.743 599.794 601.21 600.971M562.105 615.743C552.886 619.603 559.891 633.833 568.945 629.552C578.245 625.154 571.277 611.902 562.105 615.743M458.109 619.029C450.149 623.464 456.802 635.771 464.941 631.667C473.426 627.39 466.583 614.306 458.109 619.029M615.004 623.576C603.197 626.844 607.971 645.526 619.999 642.412C631.935 639.322 627.087 620.232 615.004 623.576z"
       id="path1135" />
    <path
       style="fill:#e00074;stroke:none;fill-opacity:1"
       d="M296 642.544C272.611 647.376 279.168 684.855 303 679.47C326.576 674.143 319.563 637.676 296 642.544z"
       id="path1137" />
    <path
       style="fill:#e00074;stroke:none;fill-opacity:1"
       d="M432.314 652.086C428.876 654.046 430.728 660.618 434.87 658.824C439.375 656.873 436.744 649.561 432.314 652.086M515.044 652.743C505.051 656.759 511.831 673.201 521.956 668.987C532.471 664.61 525.602 648.5 515.044 652.743z"
       id="path1139" />
    <path
       style="fill:#e00074;stroke:none;fill-opacity:1"
       d="M752 655.483C733.183 658.639 736.889 687.61 756 684.786C774.89 681.995 770.743 652.34 752 655.483z"
       id="path1141" />
    <path
       style="fill:#e00074;stroke:none;fill-opacity:1"
       d="M583.318 661.046C579.892 663.299 582.966 668.76 586.578 666.712C590.44 664.522 587.289 658.435 583.318 661.046z"
       id="path1143" />
    <path
       style="fill:#e00074;stroke:none;fill-opacity:1"
       d="M257 670.681C252.744 671.626 248.735 674.594 245 676.719C237.696 680.873 228.341 684.882 222.229 690.681C217.75 694.93 220.11 703.286 227.004 702.498C230.925 702.049 234.71 698.974 238 697C245.741 692.355 256.401 688.174 262.566 681.482C266.962 676.712 263.845 669.161 257 670.681z"
       id="path1145" />
    <path
       style="fill:#e00074;stroke:none;fill-opacity:1"
       d="M546.746 674.047C543.518 676.525 547.157 682.084 550.667 679.339C554.168 676.601 550.078 671.49 546.746 674.047M475.109 678.746C466.99 682.112 472.532 695.628 480.895 692.253C489.734 688.686 483.874 675.113 475.109 678.746z"
       id="path1147" />
    <path
       style="fill:#e00074;stroke:none;fill-opacity:1"
       d="M794.228 693.028C787.198 697.309 793.231 708.924 800.941 704.817C809.203 700.417 802.168 688.192 794.228 693.028M253.228 723.029C246.215 727.274 252.623 738.015 259.891 733.971C267.684 729.637 260.534 718.607 253.228 723.029M774.314 723.072C769.749 725.795 773.718 734.05 778.566 730.953C782.981 728.133 779.148 720.189 774.314 723.072M672.015 774.746C661.4 778.784 667.201 795.356 677.985 791.254C688.6 787.216 682.799 770.644 672.015 774.746M349.001 778.588C336.413 781.845 341.552 799.83 353.985 796.681C365.151 793.853 360.526 775.606 349.001 778.588M724.005 779.613C713.164 782.219 716.753 799.758 727.995 796.482C738.613 793.388 734.764 777.026 724.005 779.613M279.005 791.743C267.016 796.351 274.531 815.307 286.957 809.991C298.649 804.988 290.929 787.16 279.005 791.743M417.004 816.588C405.431 819.605 410.192 837.142 421.96 833.485C432.37 830.251 427.957 813.732 417.004 816.588M612 817.483C594.783 820.832 599.593 848.156 617 844.591C634.175 841.073 629.642 814.052 612 817.483M557.043 843.668C547.553 846.527 550.986 861.913 560.995 859.304C571.501 856.565 567.717 840.452 557.043 843.668M465.437 845.032C460.761 848.211 466.001 855.069 470.563 851.968C475.239 848.789 469.999 841.931 465.437 845.032z"
       id="path1149" />
  </g>
</svg>
